<?xml version="1.0" encoding="utf-8"?>
<!-- Generator: Adobe Illustrator 21.1.0, SVG Export Plug-In . SVG Version: 6.00 Build 0)  -->
<!DOCTYPE svg PUBLIC "-//W3C//DTD SVG 1.1//EN" "http://www.w3.org/Graphics/SVG/1.1/DTD/svg11.dtd">
<svg version="1.1" id="Layer_1" xmlns="http://www.w3.org/2000/svg" xmlns:xlink="http://www.w3.org/1999/xlink" x="0px" y="0px"
	 viewBox="0 0 60 57" style="enable-background:new 0 0 60 57;" xml:space="preserve">
<style type="text/css">
	.st0{fill:none;}
</style>
<g>
	<path class="st0" d="M35.2,36.7c0.1-0.6,0.1-1.2,0.1-1.8c0-0.1,0-0.2,0-0.3v-1v-4.5v-1.2c-1.4,1.3-2.8,2.1-4.4,2.6
		c-0.3,0.1-0.7,0.2-1.1,0.3c-0.1,0-0.1,0-0.2,0.1c-1.3,0.3-3.1,0.6-5.3,0.8c0,0-0.1,0-0.1,0c-0.3,0-0.6,0.1-0.8,0.1
		c-0.2,0-0.4,0-0.6,0.1c-0.8,0.1-1.6,0.2-2.3,0.3c-2.4,0.4-4.3,1.1-5.6,2.1c-0.2,0.1-0.4,0.3-0.5,0.4c-0.4,0.3-0.7,0.7-1,1.1
		c-0.2,0.2-0.3,0.5-0.5,0.7c-0.4,0.7-0.6,1.6-0.7,2.5c0,0,0,0.1,0,0.1c0,0.2,0,0.4,0,0.6c0,0.4,0,0.8,0.1,1.2
		c0.1,0.4,0.1,0.9,0.3,1.2c0.2,0.5,0.4,1.1,0.7,1.5c0.4,0.6,0.8,1.1,1.4,1.5c0,0,0.1,0.1,0.1,0.1c0.4,0.3,0.9,0.7,1.4,0.9
		c0.5,0.2,0.9,0.4,1.4,0.6c1.1,0.3,2.2,0.5,3.5,0.6c0.2,0,0.4,0,0.6,0c0.4,0,0.9,0,1.3,0c1.9-0.1,3.7-0.5,5.2-1.2
		c1.3-0.6,2.5-1.3,3.4-2.2c0.4-0.4,0.8-0.8,1.1-1.3c0.2-0.3,0.4-0.6,0.6-0.9c0.2-0.3,0.4-0.7,0.6-1C34.6,39.6,35,38.2,35.2,36.7z"/>
	<path class="st0" d="M45.1,49.6c0.1,0.2,0.3,0.4,0.3,0.6C45.3,50,45.2,49.8,45.1,49.6z"/>
	<path class="st0" d="M20.8,27.1c0.1,0,0.1,0,0.2,0C20.9,27.1,20.9,27.1,20.8,27.1z"/>
	<path class="st0" d="M40,40.6c0-0.1,0.1-0.2,0.1-0.4C40,40.4,40,40.5,40,40.6L40,40.6z"/>
	<path class="st0" d="M11.5,16.1c-0.1-0.1-0.1-0.2-0.2-0.2C11.3,16,11.4,16,11.5,16.1L11.5,16.1z"/>
	<path d="M36,33.9c-0.3-0.1-0.4-0.1-0.6-0.3v1c0,0.1,0,0.2,0,0.3c0.4,0,0.8,0,1.2,0C36.3,34.4,36.2,33.9,36,33.9z"/>
	<path d="M30.6,7.7c0.2,0.5-0.2,1-0.8,1.2c-0.6,0.2-1.1,0.4-1.7,0.6c0.4,0.1,0.9,0.2,1.3,0.3c0-0.1,0.1-0.1,0.1-0.2
		c0.1,0.1,0.2,0.2,0.3,0.3c1.2,0.4,2.3,0.9,3.2,1.7c1,0.8,1.7,1.9,2.2,3.1c0.8-0.3,1.3-0.5,1.7-0.6c1,0.6,0.8,1.3,0.3,2.4
		c-0.7-0.6-1.2-1-2-1.6c0.2,0.7,0.4,1.5,0.4,2.3c0.4,0,0.8,0,1.2,0c-0.6,0.5-0.9,0.8-1.2,0.8c0,0.8-0.1,1.5-0.3,2.1
		c0.5,0,0.9,0,1.3,0c-0.2-0.4-0.3-0.7-0.5-1.2c0.6-0.5,1.3-1,2.2-1.8c0.1,1.1-1.6,1.8-0.2,2.6c0.6-0.5,1.1-1,1.8-1.6
		c0.1,1.3-0.1,2-1.2,2.1c-1.1,0.1-1.4,1-1.8,1.9c-0.3,0-0.7,0-1,0c-0.3,0-0.6,0.1-1.1,0.1c0-0.4-0.1-0.7-0.1-1.1
		c-0.4,0.9-1,1.6-1.8,2.1c-0.6,0.4-1.5,0.7-2.7,1.1c-0.1,0.2-0.1,0.3-0.2,0.5c0,0.2,0.2,0.5,0.4,0.7c0.1,0.1,0.4-0.1,0.6-0.3
		c0.8-0.9,0.8-0.9,1.5-0.9c0.3,1.4,0.3,1.4-0.8,1.8c-0.6,0.2-1.4,0.5-1.8,1c-0.9,1-0.9,1.1-2.3,0.8c-0.6-1-0.4-1.7,0.5-2.5
		c0.3-0.3,0.6-0.6,0.8-0.9c-0.9,0.2-1.9,0.4-3.1,0.6c-0.3,0.1-0.5,0.3-0.8,0.3c-0.1,0-0.2-0.1-0.2-0.1c-0.7,0.1-1.5,0.2-2.3,0.3
		c-0.4,0-0.8,0.1-1.2,0.1c0,0.1,0,0.1,0,0.2c0.6,0,1.1,0,1.9,0c-0.5,0.6-0.9,1-1.1,1.2c-1-0.2-1.6-0.7-2-1.3c-2.4,0.3-4,0.6-5,0.8
		c-1.2,0.3-2.7,0.9-4.4,1.8c-0.6,0.3-1.1,0.7-1.6,1c0,0,0.1,0,0.1,0.1c-0.1,0-0.2,0-0.2,0c-0.4,0.3-0.8,0.6-1.1,0.9
		c0.1,0.3,0.1,0.7-0.2,1.2c-0.3-0.1-0.6-0.1-0.8-0.1c-0.2,0.2-0.4,0.5-0.5,0.7c1.3,0.9,1.2,2.6,2.7,3.3c-0.4,0.3-0.7,0.5-0.9,0.8
		c-0.2,0.3-0.3,0.7-0.4,1.1c0.4,0.1,0.7,0.2,1.1,0.3c0.2,0,0.4,0,1,0c-0.8,0.7-1.3,0.9-2,0.7c-0.8-0.2-1.6-0.4-2.5-0.6
		c-0.1-0.5-0.3-1.2-0.6-2c1.9-0.5,2.1-1.7,1.5-3.3c-1.2,1.8-1.9,3.9-2,6.3c0.4,0.4,0.4,0.9,0,1.1c0,0,0,0-0.1,0c0,0.6,0,1.2,0.1,1.8
		c0.9-0.4,1-0.1,1.3,1.6c-0.5-0.4-0.8-0.8-1.2-1.1c0.2,1.3,0.6,2.5,1.1,3.6c0,0,0,0,0-0.1C6,45,6.5,44.5,6.7,43.9
		c0.2-0.7,0.1-1.5,0.2-2.3c1.7-0.3,0.9,2.2,2.4,2.3c0.6-0.5,1.1-2.1,2.7-0.8c-0.9,0.6-1.6,1.1-2.4,1.6c-1.7,1-1.9,1.8-0.2,3.5
		c-1.2-0.2-2-0.3-2.2-1.1c-0.1-0.4-0.6-0.4-0.9-0.6c0.7,1.3,1.7,2.4,2.9,3.4c0.5,0.4,1,0.8,1.6,1.1c0.3,0,0.5-0.1,0.8,0
		c0.5,0.1,0.7,0.4,0.6,0.8c1.9,0.9,4.2,1.5,6.7,1.8c0.3-0.5,0.7-0.7,1.3-0.3c0.6,0.3,1.2,0.3,1.4-0.7c-0.4,0-0.7,0-1.1-0.1
		c0.2-1.1,0.4-2.2,0.7-3.4c0.6,0.8,1.2,1.5,1.9,2.4c-0.2,0.7-0.4,1.4-0.6,2.2c5.3-0.2,9.5-1.9,12.5-5.2c-0.1-0.2-0.1-0.4-0.2-0.6
		c0.1-0.1,0.2-0.1,0.3-0.2c0.1,0.1,0.2,0.1,0.3,0.2c0.3-0.4,0.7-0.8,0.9-1.2c0.2,0.7,0.4,1.3,0.7,1.9c0-0.7-0.1-1.3,0.1-1.4
		c0.7-0.6,1.1,0.2,1.4,0.4c-0.2,0.9-0.5,1.6-0.7,2.4c1.3,1.7,3.1,2.8,5.6,3.2c0.1-0.1,0.1-0.2,0.1-0.4c-0.2-0.1-0.5-0.2-0.9-0.3
		c0.1-0.3,0.2-0.7,0.4-0.9c0.8-0.8,1.4-1.7,0.6-2.8c0,0,0.2-0.2,0.4-0.4c0.1-0.1,0.1-0.1,0.2-0.1c0,0,0,0,0-0.1l0,0c0,0,0,0,0,0
		c-0.1-0.1-0.1-0.3-0.2-0.4c-0.1-0.2-0.1-0.3-0.2-0.5c-0.1-0.3-0.1-0.6-0.1-1c-0.2-0.3-0.4-0.7-0.5-1.2c-0.2,0-0.3,0-0.5,0
		c-0.3-1-0.5-1.9,0.2-2.8c0-0.9,0-1.9,0-3.3v-0.6c-0.1-0.2-0.2-0.4-0.3-0.6c-0.2-1.4-0.9-2.2-2.4-2.3c0-0.2,0.1-0.3,0.1-0.5
		c0.8,0,1.6,0.1,2.4,0.1c0.3,0.6-0.1,1.4,0.2,1.9V34c-0.2,0-0.4-0.1-0.6-0.1c0.2-0.5,0.2-1.2,0.5-1.5c0,0,0.1-0.1,0.1-0.1V31
		c-0.5-0.6-1-1.1-1.5-1.6c0.2-0.7,0.7-0.7,1.1-0.4c0.1,0.1,0.2,0.2,0.3,0.3v-3.6c-0.2,0-0.3,0-0.5-0.1c-0.1-0.5-0.2-1.2-0.3-2
		c0.2-0.2,0.6-0.4,0.9-0.5v-3.3c0-1.4-0.1-2.7-0.3-3.9c0,0,0,0,0,0c0-0.1,0-0.1,0-0.2c-0.3-1.7-0.7-3.2-1.4-4.6
		c-0.1-0.1-0.2-0.1-0.2-0.2c0,0,0.1,0,0.1,0c-0.3-0.5-0.5-1-0.8-1.4c0,0.3-0.1,0.6-0.1,1c-0.7-0.1-1.2-0.3-1.7-0.4
		c0-0.2-0.1-0.4-0.1-0.5c0.4-0.3,0.8-0.5,1.4-0.8c-0.2-0.2-0.3-0.4-0.5-0.5c-1.3,0.3-1.4,0.7-1.3,2.4c0,0.1,0,0.2,0,0.4
		c-0.1,0.6-0.2,1.3-0.3,2.1c-0.3,0-0.7,0.1-1,0.1c-0.4,0-0.7,0.1-1.1,0.1c-0.5-0.7-1-1.3-1.4-2c1-0.3,1.9-0.6,3.1-0.9
		c-0.3-0.5-0.4-0.8-0.7-1.3c0.5-0.4,1.1-0.9,1.7-1.3c0.1-0.1,0.2-0.2,0.4-0.2c-2-1.9-4.8-3.1-8.2-3.6c0.3,0.5,0.6,0.9,1,1.5
		C30.9,5.9,30.1,6.6,30.6,7.7z M6.3,39.4c-0.3-0.3,0.2-0.9,0.6-0.7c0.4,0.1,0.9,0.5,1.2,0.9c0.2,0.4,0.2,0.9,0.4,1.5
		C7.1,41.1,6.8,40.1,6.3,39.4z M39.3,15c0.9-0.2,0.8,0.6,1.3,1.2C39.1,16.3,39.1,16.3,39.3,15z M39.5,21.1c0.4,0.2,0.8,0.6,1.5,1.1
		c-0.9,0.2-1.4,0.4-1.8,0.3c-0.3-0.1-0.8-0.6-0.8-0.9C38.5,21,39.1,20.9,39.5,21.1z M40,25.4c-0.1,0-0.3,0.1-0.4,0.1
		c-0.1-0.4-0.1-0.7-0.2-1.1c0.1,0,0.2-0.1,0.3-0.1C39.9,24.7,39.9,25.1,40,25.4z M37.8,23.4c-0.1,0.5-0.1,1.2-0.2,1.9
		c-1.3-0.8-2.5-1.4-4-2.3C35.2,23.1,36.3,23.2,37.8,23.4z M37.2,26.3c-0.5,1-1.2,1-2.1,0.7c0-0.7,0-1.3,0-2.4
		C36,25.3,36.6,25.8,37.2,26.3z M33.2,28.2c-0.7,0.1-1.3,0.1-1.9,0.2c0-0.2-0.1-0.3-0.1-0.5C31.9,27.8,32.4,26.8,33.2,28.2z
		 M28.7,30.6c-1-0.5-1.9-0.8-3-1.3C27.1,28.4,28.1,28.8,28.7,30.6z M25.6,26.7c0.2,0.1,0.5,0.1,0.6,0.3c0.3,0.6,0.2,1-1,1.2
		C25.3,27.6,25.4,27.2,25.6,26.7z M20.6,27.2c0.1,0,0.1-0.1,0.2-0.1c0.1,0,0.1,0,0.2,0c0.4,0,0.6,0.3,0.8,0.6c0,0,0,0,0,0
		c0,0,0,0,0,0.1c0.4,0.3,0.8,0.6,1.2,0.8c-0.4,1-1,1.1-1.9,0.8c0.2-0.6,0.5-1.1,0.7-1.6c0,0,0,0,0,0l0,0c0,0,0,0,0,0
		c0,0-0.1,0-0.1,0c-0.4,0-0.8-0.1-1.2-0.1C20.5,27.5,20.5,27.3,20.6,27.2z M19.3,30.9c-1.1,0.8-1.1,0.8-1.8-0.3
		C18.3,30.1,18.8,30.3,19.3,30.9z M16.7,26.9c0.7-0.3,1.5-0.4,2.4-0.6c-0.2,1.9-0.8,2.4-2.1,2c-0.3-0.1-0.7-0.4-0.7-0.6
		C16.2,27.5,16.5,27,16.7,26.9z M17,31.8c-1.2,0.8-1.2,0.8-1.6-0.2C15.9,31.7,16.4,31.8,17,31.8z M13.2,30.5
		c0.4-1.1,0.7-2.4,1.9-3.2c0.6,0.7,1.1,1.3,1.8,2.1c-0.9,0.9-2.8,1-2.4,3.1c-0.5-0.1-0.9-0.2-1-0.3C13.3,31.7,13,31,13.2,30.5z
		 M11.5,30.6c0.1,0,0.4,0.3,0.4,0.5c-0.1,0.6-0.5,0.7-1.1,0.5C10.7,31,11,30.6,11.5,30.6z M9.4,34.8c0.1-0.8-0.1-1.2,0.1-1.5
		c0.7-0.7,1.6-0.7,2.7-0.6C11.9,34.5,10.5,33.9,9.4,34.8z M9.8,39.4c0-0.1,0-0.3,0-0.4c0.3,0,0.6-0.1,1-0.2
		C10.6,40,10.1,39.5,9.8,39.4z M10.4,46.3c-0.3-0.2-0.7-0.4-1.1-0.6C10.2,45.4,10.2,45.4,10.4,46.3z M10.4,49.2
		c-0.2-0.1-0.3-0.2-0.5-0.4c0.1-0.1,0.3-0.3,0.4-0.3c0.1,0,0.3,0.2,0.6,0.4C10.7,49.1,10.5,49.3,10.4,49.2z M11.8,46.1
		c-0.2,0.1-0.3,0.2-0.5,0.3c-0.1-0.3-0.3-0.6-0.3-0.8c0-0.2,0.3-0.5,0.5-0.6c0.2,0,0.5,0.2,0.6,0.4C12.2,45.6,11.9,45.9,11.8,46.1z
		 M13.1,51.5c0-0.6-0.1-1.3,0.2-1.9c0.2-0.6,1.1-0.8,0.5-1.7c-0.1-0.2,0.8-0.9,1.3-1.5c0.5,0.4,0.9,0.7,1.5,1.1
		c-1,1.3-2.3,2.3-1.3,4.2C14.5,51.7,13.9,51.6,13.1,51.5z M13.2,45.9c0-0.2,0.3-0.2,0.4-0.4c0.1,0.2,0.3,0.3,0.3,0.5
		c0,0.2-0.1,0.4-0.2,0.6c-0.1-0.1-0.3-0.2-0.4-0.2C13.3,46.2,13.2,46,13.2,45.9z M16.5,51.7c0.7-0.7,1.4-0.7,2.2,0
		C17.6,52.7,17.5,52.7,16.5,51.7z M17.2,49c0.8-0.1,1.4-0.1,2.2-0.2C18.6,50.1,18.6,50.1,17.2,49z M25.1,52.6c0-0.3-0.1-0.7,0-0.8
		c0.4-0.4,0.8-0.3,1.4,0.6C25.9,52.5,25.5,52.6,25.1,52.6z M24.1,50.5c0.3-0.8,0.5-1.3,0.7-1.9c0.6,0.1,1.2,0.1,1.9,0.2
		C26.3,50.2,25.2,50.2,24.1,50.5z M26.3,47.5c0-0.1,0.1-0.2,0.1-0.4c0.7,0.2,1.3,0.4,2.1,0.6c0,0.5,0.1,0.9,0.2,1.8
		C27.7,48.7,27,48.1,26.3,47.5z M28.2,50.2c0.5,0.6,0.8,1.1,1.3,1.7C27.7,52.2,27.6,52,28.2,50.2z M30.2,49.4
		c-0.8-0.3-1.2-0.7-0.8-1.4c0.4-0.7,0.9-0.5,1.6-0.1C30.7,48.4,30.5,48.8,30.2,49.4z M36.9,46c-0.5,0.1-1,0.1-1.6,0.2
		c0-0.7,0-1.3,0-2.3c0.8,0.7,1.3,1.2,1.9,1.7C37.1,45.7,37,45.8,36.9,46z M38.5,40.4c0.7-0.8,1.2-0.8,1.5-0.3c0,0.1,0,0.2,0,0.3
		c0,0.1-0.1,0.2-0.1,0.4h0l0,0c-0.2,0-0.4-0.1-0.6-0.1C39.1,40.5,38.8,40.4,38.5,40.4z M39.8,41.6c0-0.1,0-0.2,0-0.4
		c0.5,0,0.9,0,1.4,0c0,0.2,0,0.3,0,0.5C40.7,41.7,40.2,41.7,39.8,41.6z M40.2,43.8c0,0.1-0.3,0.3-0.5,0.4c-0.2-0.4-0.5-0.7-0.8-1.2
		C40,42.8,40.2,43.2,40.2,43.8z M39,49.9c0.3,0,0.5-0.1,0.8-0.1c0,0,0,0.2,0.1,0.3c-0.3,0.1-0.6,0.1-0.8,0.2
		C39.1,50.1,39,50,39,49.9z M39.6,51.3c0.7-0.5,1.3-0.7,1.9-0.2C40.8,51.9,40.8,51.9,39.6,51.3z M38.7,46.3c0.2-1.4,0.3-1.5,2.8-1.5
		C41.3,46.7,40.6,47.1,38.7,46.3z M39.8,39c0-0.1,0.1-0.3,0.1-0.4c0.6,0.1,1.1,0.2,1.8,0.4C40.9,40,40.9,40,39.8,39z M41.7,36.6
		c-0.3,1-1,1.1-1.6,1.3c-2.6,0.9-2.6,0.8-2.1,3.6c-0.4,0-0.8,0-1.2,0c-0.5,0-1.1,0.2-0.9,0.8c0.2,0.7,0.7,0.5,1.2,0.2
		c0.1,0,0.2,0,0.4,0c0.3,0.5,0.7,1.1,1,1.6c-0.3,0.6-0.7,0.7-1.2,0.4c-0.4-0.2-0.8-0.6-1.1-0.9c-0.9-0.6-1.8-1.3-2.7-1.9
		c-0.2,0.3-0.4,0.6-0.6,0.9c0.3-0.1,0.7-0.1,1.2-0.3c-0.5,1.2-1,1.8-1.9,1.9c-1.4,0.2-2.2,0.8-1.9,2.3c-1,0.7-1.5,0.1-2-0.5
		c-1.5,0.7-3.3,1-5.2,1.2c0.1,0.1,0.1,0.1,0.2,0.2c-1,1.2-1,1.2-2.4,0.3c0.1-0.1,0.2-0.3,0.3-0.4c-1.3,0-2.5-0.2-3.5-0.6
		c-0.4,0-0.9-0.2-1.5-0.5c0,0,0-0.1,0.1-0.1c-0.5-0.3-1-0.6-1.4-0.9c0,0-0.1-0.1-0.1-0.1c-0.6,0-1.4-0.8-1.4-1.4c0-0.1,0-0.1,0-0.2
		c-0.3-0.5-0.6-1-0.7-1.5c-0.7,0.1-1.5-0.3-2.4-0.5c0.8-0.4,1.5-0.8,2.2-0.7c-0.1-0.4-0.1-0.8-0.1-1.2c0-0.2,0-0.4,0-0.6
		c-0.1,0.3-0.2,0.6-0.3,0.9c-0.1,0-0.2-0.1-0.3-0.1c0.1-0.3,0.2-0.7,0.2-1c0.1,0,0.3,0.1,0.4,0.1c0.1-0.9,0.3-1.7,0.7-2.5
		c-0.5-0.4-0.9-0.8-1.3-1.2c0.5-0.1,1.2,0,1.8,0.4c0.3-0.4,0.6-0.7,1-1.1c0.1-0.2,0.2-0.4,0.4-0.7c0.1,0.1,0.1,0.2,0.2,0.2
		c1.4-1,3.2-1.7,5.6-2.1c0-0.7,0-1.4,0-2.1c0.8,0,0.8,0,1.5,1.6c0.5,0,1,0.1,1.5,0.1c0.3,0,0.6-0.1,0.8-0.1c0.5-1.5,0.5-1.5,2-1
		c0,0.2-0.1,0.3-0.1,0.4c-0.3,0.6-1.1,0.4-1.7,0.6c2.2-0.2,4-0.5,5.3-0.8c-0.4-0.9-0.6-1.5-0.8-2c0.1-0.1,0.2-0.2,0.3-0.3
		c0.6,0.2,1.1,0.4,1.9,0.6c-0.4,0.5-0.7,0.9-1.2,1.6c0.4-0.1,0.8-0.2,1.1-0.3c1.5-0.5,3-1.4,4.4-2.6v1.2c0.5,0,0.9,0,1.4,0
		c0-0.5-0.1-0.8-0.1-1.5c0.9,0.6,1.4,1.1,2.2,1.6c-1.1,0.7-1.5,1.6-0.8,2.8c-1.9-0.1-1.9-0.1-2,1.1c0.4,0,0.8-0.1,1.1-0.1
		c0.4,0.8,0.7,1.5,1,2.3c-1.1,1.7-2.1,2.1-3,1.4c-0.2,1.5-0.6,2.9-1.2,4.1c0.7,0,1.6,0.3,2.2-0.4c-1.3-0.5-1.4-1.5-1-2.7
		c0.5,0.6,0.9,1,1.5,1.7c-0.2-2.1,0-2.3,1.7-1.8c0.5-0.5,0.8-1.2,1.4-1.4C40.3,36,41,36.4,41.7,36.6z M38.7,32.7
		c0.9,0.1,1.6,0.3,1.7,1.3C39.1,34.2,39.1,34.2,38.7,32.7z M39.3,31.4c-0.2-0.1-0.1-0.6-0.1-0.9c0.5,0,1,0.1,1.5,0.1
		C40.3,31.6,39.8,31.8,39.3,31.4z M38.2,27.6c0.7-1.1,1.1-1.3,3.3-1.2C41,28.5,39.6,28.9,38.2,27.6z M42.3,18
		c-0.7-0.3-1.1-0.5-1.5-0.8c0.1-0.2,0.1-0.3,0.2-0.3C41.8,16.5,42.1,16.9,42.3,18z M39.6,12.3c0.7-0.2,1.3,0,1.9,1.1
		c-0.9,0-1.4,0-2,0c-0.1,0-0.4-0.3-0.3-0.5C39.2,12.6,39.4,12.4,39.6,12.3z M37.1,7.4c-0.8,0.3-1.2,0.5-1.9,0.8
		c-0.1-0.9-0.2-1.5-0.3-2.5C35.8,6.3,36.3,6.7,37.1,7.4z M32.9,10.1c-0.8,0.4-1.3-0.1-1.8-0.9c0.8-0.5,1.4-0.9,1.9-0.1
		C33.2,9.3,33,10,32.9,10.1z M32.2,6.2C33,6.1,33,6.7,33.1,7.4c-0.7,0.1-1.3,0.2-1.3-0.7C31.8,6.5,32,6.2,32.2,6.2z"/>
	<path d="M44.1,48C44.1,48,44.1,48,44.1,48C44.1,48,44.1,48,44.1,48c0.3,0.6,0.7,1.2,0.9,1.6c0.1,0.2,0.3,0.4,0.3,0.6
		c-0.1,1.2-0.2,2.1-0.3,3.1c0.2,0,0.4,0,0.7,0c2.3,0,4.2-0.4,5.7-1.2c-0.4-0.2-0.7-0.4-0.9-0.7c-0.2-0.2-0.3-0.8-0.2-1
		c0.3-0.4,0.8-0.7,1.4-0.2c0.4,0.4,0.7,0.8,0.5,1.4c0.8-0.6,1.5-1.4,2-2.4c0-0.1,0-0.2,0-0.4c0.1-0.1,0.2-0.1,0.3-0.2
		c0.3-0.7,0.5-1.4,0.6-2.2c-0.6,0.1-1.2-0.4-1.9-0.5c0.1-0.8,0.5-1,1.1-0.7c0.3,0.1,0.5,0.2,0.8,0.3c0.1-0.4,0.1-0.9,0.1-1.4v-0.3
		c-0.2,0.1-0.4,0.2-0.6,0.2c-2.3,0.7-3,1.8-2.5,4.2c0,0.2,0,0.5,0.1,0.7c-2.4-0.2-2.4-0.2-4.3-1.8c0.6,0,1-0.2,1.3-0.1
		c0.7,0.3,1.2,0.2,1.6-0.3c0.5-0.6,0.3-1.2-0.3-1.7c1.3-1.6,1.3-1.6,2.8-1.5c0.1-0.1,0.3-0.3,0.4-0.5c0.1-0.2,0.2-0.4,0.4-0.8
		c0.4,0.1,0.8,0.2,1.1,0.2v-1c-0.1,0-0.1,0-0.2-0.1c0.1-0.1,0.1-0.2,0.2-0.2v-1.8c-1,0.8-1.3,0.8-2.2-0.3c1.2-0.8,1.3-0.8,2.2,0.1
		v-0.5v-0.5c0-0.3,0-0.6,0-0.9c-0.6,0.3-0.8,0.1-1.5-0.9c0.5,0,0.9-0.2,1.3-0.2c-0.4-1.7-1.3-2.5-2.9-2.5c-1.9,0-2.9,1-2.9,3v4.6
		c0,0,0,0.1,0,0.1c0.6,0.5,1.2,1,1.9,1.5c-0.4,0.4-0.7,0.6-1,0.9c-0.3-0.5-0.7-1-1-1.5c-0.2,3.3-1.3,5-3.3,5c0,0-0.1,0-0.1,0
		c-0.1,0.2-0.1,0.3-0.2,0.5C45.3,47.9,44.7,47.9,44.1,48z M52.6,38.2c0-0.1-0.1-0.3-0.1-0.3c0.2-0.1,0.5-0.2,0.7-0.3
		c0,0.1,0.1,0.2,0.1,0.3C53.1,38,52.8,38.1,52.6,38.2z M50.9,36.6c-0.6-1.2-0.6-1.2,1.2-2.4c0.4,0.3,0.9,0.6,1.3,0.7
		c-0.7,1.4-1.4,2.7-2.1,4.1c-0.3,0-0.8-0.1-1.3-0.1C49.7,37.8,49.6,37,50.9,36.6z M50.3,41.6c0.4-0.7,0.7-1.1,0.9-1.4
		c0.8-0.1,1.2,0.3,1.4,2.2C51.7,42.1,51.1,41.9,50.3,41.6z M48.3,52.1c-0.1-0.1-0.2-0.2-0.2-0.2c0.1-0.3,0.3-0.5,0.5-0.8
		c0.1,0.1,0.3,0.2,0.4,0.3C48.8,51.7,48.5,51.9,48.3,52.1z M49,49.1c-0.6,0.4-1.1,0.8-1.8,1.3c-0.2-0.8-0.3-1.2-0.5-1.6
		C47.5,48.3,48.1,48.2,49,49.1z M46.6,51.2c0.3,0.4,0.5,0.7,0.8,1.1c-0.2,0.2-0.3,0.3-0.5,0.5c-0.4-0.3-0.7-0.5-1.1-0.8
		C46,51.7,46.3,51.4,46.6,51.2z"/>
	<path d="M15.1,21.1C15.1,21.1,15.1,21,15.1,21.1c-0.3,0.3-0.7,0.6-1.1,1c0.4,0,0.7-0.1,1-0.2C15,21.6,15.1,21.4,15.1,21.1
		C15.1,21.1,15.1,21.1,15.1,21.1C15.1,21.1,15.1,21.1,15.1,21.1z"/>
	<path d="M44.1,48L44.1,48L44.1,48z"/>
	<path d="M16.4,5.3c-0.1,0.7-0.3,1.3-0.4,2.2c1.2-0.5,2.1-0.9,3-1.2c0.1-0.1,0.4,0.2,0.9,0.5c-0.9,0.5-1.4,1-1.9,1.1
		c-2.2,0.5-2.5,0.7-2.2,3c-1.3,0.2-1.6,1.2-1.6,2.4c-1.3-0.2-1.4-1.6-2.4-2c0.8-0.8,2,0.5,2.5-0.9c-0.3-0.2-0.6-0.4-0.9-0.6
		c0-1.5,2.6-1.7,1.9-3.8c-0.2,0.3-0.4,0.5-0.5,0.7c-0.4,0.7-0.9,0.6-1.3,0.2c-0.1,0.1-0.2,0.2-0.4,0.2c-3.1,2.2-4.8,4.9-5.1,7.9
		c0.3,0.6,0.5,1.3,0.7,2c-0.2,0.2-0.4,0.4-0.6,0.5c0.1,0.7,0.4,1.3,0.8,1.8c0.4-0.1,0.9-0.1,1.4-0.2c0.3,0.3,0.4,0.7-0.3,1
		c-0.1,0-0.2,0.1-0.3,0.1c0.4,0.4,0.8,0.6,1.2,0.9c0.2-0.1,0.3-0.3,0.5-0.4c0.2-0.2,0.6-0.1,0.9-0.1c0,0.3,0.1,0.7,0,1
		c0,0,0,0.1-0.1,0.1c0.4,0.1,0.8,0.2,1.2,0.2c-0.1-0.3-0.1-0.6-0.1-0.8c0.3-2.3,0.4-2.4,2.1-3.8c0.6-0.5,1-0.5,1.6,0.1
		c-0.4,0.5-0.8,1-1.2,1.5c0.4,0.4,0.6,0.8,1,1.2c-0.6,0.3-1,0.6-1.5,0.9c0,0,0,0,0,0c0.1,0.2,0.2,0.5,0.3,0.7
		c0.6-0.2,1.1-0.5,1.6-0.9c0.5-0.5,0.9-1,1.1-1.7c-0.4-0.1-0.8-0.1-1.3-0.2c0.8-0.4,1.1-0.6,1.4-0.4c0-0.2,0.1-0.5,0.1-0.8
		c0-0.8-0.1-1.5-0.4-2c-0.1-0.1-0.3-0.2-0.5-0.3c0.1,0,0.1-0.1,0.2-0.1c-0.2-0.3-0.4-0.5-0.7-0.7c-0.3-0.2-0.5-0.4-0.6-0.5
		c-0.1,0-0.2,0-0.3,0c0.1,0,0.1-0.1,0.2-0.1c-0.1-0.1-0.1-0.2-0.1-0.3c0-0.7,0.5-1.3,1.4-2c1.2-0.7,2.4-1.3,3.6-1.7
		c-0.2,0-0.4,0-0.7,0c0-0.7,0.1-1.3,0.1-2.1c1,0.4,1.7,0.8,2,1.7c0.7-0.1,1.3-0.2,2-0.3c0.7-0.9,1.2-0.9,2,0c0.4,0,0.8,0.1,1.2,0.1
		c-0.2-1.5-0.3-2.8,0.9-4c0.6-0.6,0.7-1.2,0.4-1.8c-0.9-0.1-1.8-0.2-2.8-0.2c0,0.1,0.1,0.1,0.1,0.2c-0.3-0.1-0.5-0.1-0.8-0.2
		c0,0-0.1,0-0.1,0c-1,0-2,0.1-2.9,0.2C22.9,4,23.1,4.5,23.3,5C23,5.8,21.7,5,21.7,6.1c0.7,0.5,1.5,1.1,2.3,1.6
		c-0.6,0.8-1.1,0.9-1.7,0.3c-0.7-0.6-1.3-1.2-2-1.8c-0.5-0.4-1.1-0.7-1.6-1.1c0-0.1,0-0.3,0-0.4c0.5,0,1.1,0,1.6,0.1
		c0.8,0.2,1.1-0.1,1.4-0.8c-0.3-0.1-0.5-0.2-0.7-0.3C19.4,4.2,17.8,4.6,16.4,5.3C16.4,5.3,16.4,5.3,16.4,5.3z M12.5,15.4
		c-0.7-0.3-1-0.4-1.3-0.5c0-0.1,0-0.2,0-0.3c0.2,0,0.5-0.1,0.7-0.1C12.1,14.6,12.1,14.9,12.5,15.4z M11,9.2c0.2,0.2,0.4,0.5,0.5,0.7
		c-0.1,0.1-0.3,0.2-0.4,0.2c-0.1-0.3-0.3-0.5-0.4-0.8C10.9,9.3,11,9.2,11,9.2z M9.3,16.6c-0.5-1.3,0.1-1.5,1-1.8
		C9.9,15.5,9.7,15.9,9.3,16.6z M8.7,14.1c1-0.4,0.7-2.1,2.1-1.9c0.5,0.1,0.9,0.4,1.5,0.6C11.3,14.4,10.1,14.3,8.7,14.1z M10.5,16.3
		c0.1-0.2,0.2-0.4,0.4-0.8c0.1,0.1,0.2,0.2,0.3,0.3c0.1,0.1,0.1,0.2,0.2,0.2h0l0,0c-0.1,0.1-0.2,0.2-0.3,0.3
		c-0.1,0.1-0.2,0.2-0.3,0.2C10.8,16.6,10.5,16.4,10.5,16.3z M11.6,19.7c-0.3-0.2-0.6-0.5-1-0.8c0.1-0.2,0.3-0.3,0.4-0.5
		c0.3,0.3,0.6,0.6,0.8,0.9C11.9,19.4,11.6,19.7,11.6,19.7z M11.5,17.3c0-0.1,0.1-0.3,0.1-0.4c0.6,0.1,1.3,0.3,2,0.4
		C13,18.6,12.9,18.6,11.5,17.3z M13.3,16c0-0.5,0.1-1,0.1-1.4c0.2-0.1,0.3-0.1,0.5-0.2c0.4,0.5,0.7,0.9,1.2,1.6
		C14.4,16,13.9,16,13.3,16z M15.4,13.3c-0.7-0.7-0.6-1.2,0.3-1.6C16,12.4,15.8,12.8,15.4,13.3z M16.6,9.6c1.4-1.3,2.1-1.3,2.5,0
		C18.3,9.6,17.5,9.6,16.6,9.6z M25.2,7c0.2,0.2,0.3,0.3,0.4,0.4c-0.1,0.1-0.2,0.3-0.3,0.3c-0.1,0-0.3-0.2-0.3-0.3
		C25,7.3,25.1,7.2,25.2,7z"/>
</g>
</svg>
